<svg xmlns="http://www.w3.org/2000/svg" width="50" height="50" viewBox="-3 -3 22 22" id="icon"><path d="M12.928 2.565c.406.636.7 1.332.862 2.07.727.866 1.175 1.936 1.175 3.11 0 2.056-1.332 3.818-3.244 4.644h.674v1.54l-1.91-1.146c-.38.072-.77.115-1.176.115-.512 0-.998-.085-1.47-.2-.603.127-1.228.2-1.873.2-.133 0-.263-.01-.394-.017a7.043 7.043 0 0 0 3.737 1.057c.36 0 .704-.05 1.048-.098l3.066 2.148v-3.395c1.556-1.133 2.572-2.87 2.572-4.843 0-2.177-1.223-4.085-3.064-5.187zM13 6.005c0-3.314-2.908-6-6.497-6s-6.498 2.687-6.498 6c0 1.742.817 3.296 2.103 4.394v3.017l2.45-1.717c.617.18 1.263.303 1.945.303 3.59 0 6.498-2.686 6.498-6zm-8.618 4.6l-1.246.75V9.922C1.846 9.007 1.002 7.6 1.002 5.998c0-2.76 2.463-4.996 5.5-4.996s5.502 2.236 5.502 4.996c0 2.76-2.463 4.996-5.5 4.996a5.99 5.99 0 0 1-2.122-.388z"/></svg>