<svg xmlns="http://www.w3.org/2000/svg" width="50" height="50" viewBox="-3 -3 22 22" id="icon"><path d="M10 5.5s1-.5 2-.5 1.5.5 1.5.5v-1s-.564-.5-1.595-.5C10.937 4 10 4.5 10 4.5v1zm-7.5 2v1S3 8 4 8s2 .5 2 .5v-1S4.935 7 3.904 7c-.967 0-1.406.5-1.406.5zm0 3v1S3 11 4 11s2 .5 2 .5v-1S4.935 10 3.904 10c-.967 0-1.406.5-1.406.5zm0-6v1S3 5 4 5s2 .5 2 .5v-1S4.935 4 3.904 4c-.967 0-1.406.5-1.406.5zm7.5 3v1s1-.5 2-.5 1.5.5 1.5.5v-1s-.564-.5-1.595-.5C10.938 7 10 7.5 10 7.5zm0 3v1s1-.5 2-.5 1.5.5 1.5.5v-1s-.564-.5-1.595-.5c-.967 0-1.906.5-1.906.5zm1.53-10C9.698.5 8 1.5 8 1.5S6.3.5 4.467.5c-2.144 0-3.97 1-3.97 1v14s1.895-1 4.064-1c1.796 0 3.438 1 3.438 1s1.642-1 3.438-1c2.17 0 4.063 1 4.063 1v-14s-1.826-1-3.97-1zM7.5 13.875c-.65-.148-1.846-.377-3.048-.377-1.734 0-2.953.5-2.953.5V2.5s1.25-1 3-1c1.186 0 2.357.454 3 .75v11.626zm7 .123s-1.22-.5-2.954-.5c-1.202 0-2.397.228-3.047.376V2.25c.64-.297 1.813-.75 3-.75 1.75 0 3 .998 3 .998v11.5z"/></svg>