<svg xmlns="http://www.w3.org/2000/svg" width="50" height="50" viewBox="-3 -3 22 22" id="icon"><path d="M3.41 11.985S.97 7.868.97 6.298c0-1.065.508-1.982 1.252-2.47.16-.48.39-.928.678-1.33C1.258 2.768 0 4.29 0 6.133 0 8.167 3.416 13.5 3.416 13.5s.48-.75 1.08-1.792c-.155-.27-.31-.55-.463-.832-.356.658-.623 1.11-.623 1.11zM8 3.5a2 2 0 1 0 0 4 2 2 0 0 0 0-4zm0 3a1 1 0 1 1 0-2.002 1 1 0 0 1 0 2zm5.097-4.002c.287.402.518.85.68 1.33.744.488 1.252 1.405 1.252 2.47 0 1.57-2.442 5.688-2.442 5.688s-.268-.45-.623-1.11c-.154.284-.31.562-.463.833.6 1.042 1.08 1.79 1.08 1.79S16 8.168 16 6.134c0-1.844-1.26-3.367-2.903-3.636zM8 .5a5 5 0 0 0-5 5c0 2.76 5 10 5 10s5-7.238 5-10a5 5 0 0 0-5-5zm-4 5c0-2.206 1.793-4 4-4 2.205 0 4 1.794 4 4 0 1.537-2.2 5.427-4 8.2-1.802-2.773-4-6.662-4-8.2z"/></svg>