<svg xmlns="http://www.w3.org/2000/svg" width="50" height="50" viewBox="-3 -3 22 22" id="icon"><path d="M15.838 8.19L15.8 8 15 4a3 3 0 0 0-3-3H6a3 3 0 0 0-3 3l-.838 4.19A1.996 1.996 0 0 0 1 10v5h1v1a1 1 0 0 0 1 1h1a1 1 0 0 0 1-1v-1h8v1a1 1 0 0 0 1 1h1a1 1 0 0 0 1-1v-1h1v-5c0-.805-.478-1.494-1.162-1.81zM4 4a2 2 0 0 1 2-2h6a2 2 0 0 1 2 2l.8 4H3.2L4 4zm0 11.5a.5.5 0 0 1-1 0V15h1v.5zm11 0a.5.5 0 0 1-1 0V15h1v.5zm1-2.5v1.002H2v-1V10a1 1 0 0 1 1-1h12a1 1 0 0 1 1 1v3zm-2.5-3a1.5 1.5 0 1 0 0 3 1.5 1.5 0 0 0 0-3zm0 2a.5.5 0 1 1 .002-1.002A.5.5 0 0 1 13.5 12zm-9-2a1.5 1.5 0 1 0 0 3 1.5 1.5 0 0 0 0-3zm0 2a.5.5 0 1 1 .002-1.002A.5.5 0 0 1 4.5 12z"/></svg>