<svg xmlns="http://www.w3.org/2000/svg" width="50" height="50" viewBox="-3 -3 22 22" id="icon"><path d="M15.66 7.298l-.66-3.3C14.5 2.5 13.656 1 12 1H6C4.343 1 3.5 2.5 3 4l-.66 3.298A2.488 2.488 0 0 0 1 9.5c0 .815.396 1.532 1 1.988V13c0 .738.404 1.376 1 1.723V16a1 1 0 0 0 1 1h1a1 1 0 0 0 1-1v-1h6v1a1 1 0 0 0 1 1h1a1 1 0 0 0 1-1v-1.277A1.99 1.99 0 0 0 16 13v-1.512c.604-.456 1-1.173 1-1.988a2.49 2.49 0 0 0-1.34-2.202zM4 3.998c.5-.998.896-2 2-2h6C13.104 2 13.5 3 14 4l.602 3.013c-.034 0-.067-.01-.102-.01-.814 0-1.533.396-1.988 1H5.488A2.486 2.486 0 0 0 3.5 7c-.035 0-.068.01-.103.01L4 4zM2 9.5a1.5 1.5 0 1 1 3 0 1.5 1.5 0 0 1-3 0zm3 6a.5.5 0 0 1-1 0V15h1v.5zm9 0a.5.5 0 0 1-1 0V15h1v.5zm0-1.5H4a1 1 0 0 1-1-1h12a1 1 0 0 1-1 1zm1-2H3v-.05A2.5 2.5 0 0 0 5.95 9h6.1A2.5 2.5 0 0 0 15 11.95V12zm-.5-1a1.5 1.5 0 1 1 0-3 1.5 1.5 0 0 1 0 3z"/></svg>