<svg xmlns="http://www.w3.org/2000/svg" xmlns:xlink="http://www.w3.org/1999/xlink">

    <symbol id="qiwi" viewBox="0 0 30 30">
        <path fill-rule="evenodd" clip-rule="evenodd" d="M28.502 29.9009C28.8096 30.1733 29.2227 29.8325 28.9512 29.4961C26.2803 26.188 23.9912 25.2793 21.8779 24.7158C21.5806 24.6362 21.2866 24.5635 20.9956 24.4917L20.8818 24.4639C19.1035 24.0278 17.4312 23.604 15.7319 21.8804L15.6616 21.8091C15.1973 21.3286 14.731 20.749 14.2593 20.0449C14.1333 19.856 14.0063 19.6592 13.8789 19.4517C13.5186 18.8638 13.5474 20.3208 13.6851 22.0747L13.6919 22.1611C13.5786 22.1646 13.4653 22.168 13.3506 22.168C10.9604 22.168 8.96143 21.3315 7.24023 19.6113C5.51855 17.8911 4.68213 15.8457 4.68213 13.3584C4.68213 10.8657 5.49561 8.81152 7.16992 7.07861C8.83545 5.35449 10.8574 4.5166 13.3506 4.5166C15.7856 4.5166 17.8115 5.354 19.5439 7.0752C21.2749 8.79541 22.1167 10.8672 22.1167 13.4077C22.1167 13.7339 22.1025 14.0522 22.0752 14.3623L21.9883 14.3569C20.5073 14.2632 19.2188 14.2832 19.1299 14.3716C18.9775 14.5225 19.2295 14.5518 19.4849 14.5811C19.5908 14.5933 19.6973 14.6055 19.7754 14.6265C20.2109 14.7437 20.6152 14.8862 20.9902 15.0513C21.2842 15.1807 21.5596 15.3252 21.8174 15.4834L21.8408 15.4976L21.896 15.5317C23.4697 16.5303 24.3628 18.0767 24.6514 20.1123C24.6631 20.1938 24.7119 20.3047 24.8008 20.1592C25.626 18.7749 26.0693 17.6968 26.3071 16.9351L26.3184 16.9414C26.3579 16.7979 26.3945 16.6538 26.4292 16.5088C26.4756 16.3281 26.5083 16.1729 26.5312 16.0449C26.708 15.1626 26.7983 14.2554 26.7983 13.3262C26.7983 10.9199 26.1958 8.65869 25.0073 6.60596C23.8169 4.55029 22.1597 2.91748 20.0811 1.75146C18.0083 0.589355 15.7109 0 13.2534 0C10.8999 0 8.6709 0.59668 6.62695 1.77295C4.5835 2.9502 2.94971 4.59424 1.77197 6.65918C0.596191 8.72119 0 10.9863 0 13.3906C0 15.7979 0.59668 18.0532 1.77393 20.0938C2.95361 22.1396 4.60596 23.7676 6.68506 24.9331C8.75684 26.0952 11.0264 26.6846 13.4316 26.6846C13.9424 26.6846 14.4458 26.6558 14.9434 26.6025L15.3208 26.5732C15.585 26.5527 15.8467 26.5298 16.106 26.5073L16.1733 26.5015L16.4048 26.481C17.7314 26.3633 19.0059 26.25 20.2886 26.3037C22.8447 26.4102 25.4292 27.1807 28.502 29.9009ZM23.0869 18.8906C22.8242 18.814 22.6279 18.8711 22.5312 19.0483C22.3848 19.3159 22.4932 19.8457 22.7891 20.3071C23.0889 20.7749 23.3433 21.0117 23.5454 21.0117C23.6152 21.0117 23.6777 20.9824 23.7266 20.9272C23.8389 20.7979 23.8765 20.5273 23.8291 20.1851C23.7812 19.835 23.5664 19.1152 23.0869 18.8906ZM20.127 21.0737C19.8589 21.0737 19.6348 21.1675 19.4971 21.3369C19.1445 21.7715 19.3032 22.5361 19.8433 23.0078C20.0791 23.2134 20.4185 23.3364 20.7515 23.3364C21.0908 23.3364 21.374 23.2095 21.5488 22.9785C21.8633 22.5576 21.6821 21.9614 21.0884 21.4595C20.7944 21.2109 20.4531 21.0737 20.127 21.0737Z" fill="#FF8C00" />
    </symbol>

    <symbol id="mastercard" viewBox="0 0 40 25">
        <path fill-rule="evenodd" clip-rule="evenodd" d="M24.4995 12.3825C24.4995 19.2212 19.0151 24.7651 12.2498 24.7651C5.4844 24.7651 0 19.2212 0 12.3825C0 5.54385 5.4844 0 12.2498 0C19.0151 0 24.4995 5.54385 24.4995 12.3825Z" transform="translate(15.1118)" fill="#F79F1A"/>
        <path fill-rule="evenodd" clip-rule="evenodd" d="M24.4995 12.3825C24.4995 19.2212 19.0151 24.7651 12.2498 24.7651C5.4844 24.7651 0 19.2212 0 12.3825C0 5.54385 5.4844 0 12.2498 0C19.0151 0 24.4995 5.54385 24.4995 12.3825Z" fill="#EA001B"/>
        <path fill-rule="evenodd" clip-rule="evenodd" d="M4.69286 0C1.83468 2.26684 0 5.78937 0 9.74646C0 13.7035 1.83468 17.2288 4.69286 19.4956C7.55104 17.2288 9.38572 13.7035 9.38572 9.74646C9.38572 5.78937 7.55104 2.26684 4.69286 0Z" transform="translate(15.1128 2.63477)" fill="#FF5F01"/>
    </symbol>

    <symbol id="visa" viewBox="0 0 58 18">
        <path fill-rule="evenodd" clip-rule="evenodd" d="M24.1899 16.0361C25.7212 16.9619 27.8662 18 31.0986 18C33.9409 18 36.6577 17.2256 38.0459 13.7554C38.8525 11.7397 38.0854 9.5835 34.8667 7.52734L33.8164 6.8501C32.4224 5.97461 31.7915 5.32178 32.2686 4.36523C32.5225 3.85596 33.2563 3.47803 34.2227 3.47803C35.4346 3.47803 36.4932 4.0083 37.771 5.0542L40.2788 2.07568C38.9692 1.0498 36.7222 0 34.3262 0C30.8511 0 28.7441 1.47559 27.9458 3.4209C26.6978 6.46338 27.8447 8.20654 30.4956 10.0415L31.3789 10.6235C33.1675 11.6489 33.9512 12.2485 33.3145 13.3633C32.877 14.1299 32.1079 14.3398 31.3091 14.3398C29.187 14.3398 28.0898 13.6836 26.9585 13.0068L26.9048 12.9746L26.8853 12.9629L26.8652 12.9512C26.7026 12.8545 26.5391 12.7573 26.3711 12.6621L24.1899 16.0361ZM16.5825 17.5132L21.7139 0.375977H26.2925L21.1606 17.5132H16.5825ZM14.5352 0.380859L10.4165 7.64551C10.2407 7.96484 10.0771 8.25732 9.9248 8.5293C9.17139 9.87744 8.70557 10.7109 8.46045 11.7114H8.39795C8.44531 10.7158 8.37256 9.57178 8.31104 8.60352L8.31006 8.58691L8.30957 8.57666C8.27734 8.07373 8.24854 7.61865 8.2417 7.2583L7.78662 0.380859H0.0791016L0 0.842285C1.97998 0.842285 3.1543 1.84912 3.47754 3.91016L4.97949 17.5132H9.72314L19.3145 0.380859H14.5352ZM50.0146 14.9648L50.1411 17.5132H54.7983L53.2725 0.40918H47.1709L38.1572 17.5132H43.1284L44.2979 14.9604L50.0146 14.9648ZM49.6157 7.40479C49.5649 6.13818 49.5229 4.41895 49.6074 3.37891H49.54C49.3638 3.91797 48.8193 5.13916 48.3096 6.28223L48.2759 6.35791L48.27 6.37109C47.9893 7.00098 47.7222 7.60059 47.5381 8.04102L45.8345 11.7974H49.8486L49.6157 7.40479ZM56.3789 3.74512C55.4263 3.74512 54.7485 3.02246 54.7485 2.06689C54.7485 1.05713 55.5015 0.388672 56.3789 0.388672C57.2471 0.388672 58 1.05713 58 2.06689C58 3.07666 57.2471 3.74512 56.3789 3.74512ZM55.1025 2.06689C55.1025 1.25 55.6606 0.680176 56.3784 0.680176C57.0874 0.680176 57.6455 1.25 57.6455 2.06689C57.6455 2.8877 57.0874 3.45312 56.3784 3.45312C55.5898 3.45312 55.1025 2.82959 55.1025 2.06689ZM56.0508 3.02734H55.7495V1.16943H56.4448C56.8882 1.16943 57.1143 1.32666 57.1143 1.70361C57.1143 2.04004 56.9102 2.1792 56.6357 2.21045L57.1489 3.02734H56.8081L56.3345 2.23291H56.0508V3.02734ZM56.813 1.68066C56.813 1.9502 56.6133 1.97266 56.3872 1.97266H56.0508V1.42969H56.4136C56.5952 1.42969 56.813 1.45654 56.813 1.68066Z" fill="#29369A"/>
    </symbol>

    <symbol id="wm" viewBox="0 0 28 28">
        <path fill-rule="evenodd" clip-rule="evenodd" d="M13.9473 0C16.1372 0 18.2114 0.511719 20.0586 1.4209C20.3486 1.55908 20.6382 1.71094 20.9282 1.87891L19.644 3.03223L17.7153 1.02979L14.4595 3.94482L12.5254 1.82617L6.46045 7.31396L10.3486 11.6147L8.8208 12.9639L12.6504 17.2715L11.1313 18.6172L16.604 24.7314L19.8525 21.73L22.6611 24.9468C22.1025 25.3828 21.4941 25.793 20.8237 26.1719C18.7925 27.3345 16.4453 28 13.9473 28C6.26562 28 0 21.7104 0 14.0005C0 6.28906 6.26562 0 13.9473 0ZM11.4058 13.1152L14.7222 10.1172L17.709 13.4473L14.3926 16.4438L11.4058 13.1152ZM17.0806 15.8706L13.7637 18.8677L16.7505 22.1978L20.0674 19.1997L17.0806 15.8706ZM9.03223 7.43018L12.3486 4.43311L15.3345 7.76221L12.0181 10.7593L9.03223 7.43018ZM17.606 3.56934L15.1187 5.81689L17.3584 8.31445L19.8457 6.06592L17.606 3.56934ZM19.5381 16.1138L22.0264 13.8652L24.2661 16.3628L21.7783 18.6104L19.5381 16.1138ZM24.2134 18.9082L21.7266 21.1567L23.9658 23.6528L26.4531 21.4048L24.2134 18.9082ZM22.7285 9.59814L24.3867 8.09961L25.8799 9.76416L24.2222 11.2627L22.7285 9.59814ZM22.2681 3.1543L20.6099 4.65283L22.1025 6.31738L23.7612 4.81885L22.2681 3.1543ZM24.8486 14.5439L26.5068 13.0454L28 14.7095L26.3418 16.2085L24.8486 14.5439ZM19.8989 8.58936L17.4116 10.8379L19.6519 13.334L22.1382 11.0859L19.8989 8.58936Z" fill="#006DBB"/>
    </symbol>

    <symbol id="alfa" viewBox="0 0 20 28">
        <path d="M0.299324 0C0.134203 0 0 0.144598 0 0.323191V3.91923C0 4.09878 0.134203 4.24242 0.299324 4.24242H19.2161C19.3816 4.24242 19.5152 4.09878 19.5152 3.91923V0.323191C19.5152 0.144598 19.3816 0 19.2161 0H0.299324Z" transform="translate(0 23.7578)" fill="#F25241"/>
        <path fill-rule="evenodd" clip-rule="evenodd" d="M12.2031 2.93896C11.6646 1.46924 11.02 0 8.96875 0C6.91748 0 6.24902 1.4917 5.72949 2.93896C5.59082 3.32666 4.11475 7.36719 2.69775 11.2476C1.37988 14.856 0.112793 18.3262 0.0185547 18.5898C-0.0366211 18.7432 0.0336914 18.9243 0.191406 18.9844C0.358887 19.0479 3.14062 20.1265 3.30225 20.1909C3.46338 20.2544 3.62988 20.1567 3.68359 20.0112L5.02588 16.3223H12.9199L13.498 17.9214C13.8447 18.8818 14.2217 19.9263 14.2539 20.0112C14.3105 20.1626 14.4829 20.2476 14.6362 20.1909L16.0171 19.6553L17.7456 18.9844C17.9351 18.9136 17.9639 18.7114 17.9199 18.5898C17.7603 18.1523 12.4321 3.56201 12.2031 2.93896ZM6.28223 12.7793L8.95215 4.76465H8.98584L11.6641 12.7793H6.28223Z" transform="translate(0.699219 0.0527344)" fill="#F25241"/>
    </symbol>

    <symbol id="megafon" viewBox="0 0 28 28">
        <path fill-rule="evenodd" clip-rule="evenodd" d="M0 14C0 6.22217 6.22217 0 14 0H14.5186V14.311C14.5186 14.3633 14.5186 14.3892 14.5054 14.4023C14.4927 14.415 14.4668 14.415 14.415 14.415H12.5483C12.0298 14.415 11.5112 14.8296 11.5112 15.4517V27.7925C4.97754 26.5483 0 20.8442 0 14ZM9.64453 10.3701C9.64453 11.3037 10.3706 12.0293 11.3037 12.0293C12.2373 12.0293 12.9629 11.3037 12.9629 10.3701C12.9629 9.43701 12.2373 8.71094 11.3037 8.71094C10.3706 8.71094 9.64453 9.43701 9.64453 10.3701Z" fill="#15A748"/>
        <path fill-rule="evenodd" clip-rule="evenodd" d="M3.00732 14.8296V0C9.64453 1.03711 14.8296 6.74072 14.8296 13.7925C14.8296 21.5703 8.50391 27.7925 0.82959 27.7925H0V15.9702C0 15.9185 0 15.8926 0.0131836 15.8794C0.0258789 15.8667 0.0517578 15.8667 0.103516 15.8667H1.97021C2.48877 15.8667 3.00732 15.4517 3.00732 14.8296ZM1.45166 19.4961C1.45166 20.3257 2.07373 20.9482 2.90332 20.9482C3.73291 20.9482 4.35547 20.3257 4.35547 19.4961C4.35547 18.6665 3.73291 18.0444 2.90332 18.0444C2.07373 18.0444 1.45166 18.6665 1.45166 19.4961ZM6.74072 20.9482C5.91113 20.9482 5.28906 20.3257 5.28906 19.4961C5.28906 18.6665 5.91113 18.0444 6.74072 18.0444C7.57031 18.0444 8.19287 18.6665 8.19287 19.4961C8.29639 20.3257 7.57031 20.9482 6.74072 20.9482ZM9.22949 19.4961C9.22949 20.3257 9.85156 20.9482 10.6812 20.9482C11.5107 20.9482 12.1333 20.3257 12.1333 19.4961C12.1333 18.6665 11.5107 18.0444 10.6812 18.0444C9.85156 18.0444 9.22949 18.6665 9.22949 19.4961Z" transform="translate(13.1704 0.20752)" fill="#15A748"/>
    </symbol>

    <symbol id="yandexkassa" viewBox="0 0 124 25">
        <path fill-rule="evenodd" clip-rule="evenodd" d="M34.6189 25H32.4629V21.9595H25.8101V25H23.6541V19.9939H24.6089C24.958 19.1749 25.2352 18.2688 25.4405 17.2758C25.6458 16.2828 25.805 15.259 25.9179 14.2045C26.0308 13.1501 26.1027 12.0751 26.1335 10.9797C26.1643 9.88431 26.1797 8.82474 26.1797 7.80098V6.48034H33.3869V19.9939H34.6189V25ZM45.06 20.9152C44.5672 21.3043 44.0025 21.6114 43.366 21.8366C42.7295 22.0618 42.0211 22.1744 41.2408 22.1744C39.6392 22.1744 38.3764 21.5551 37.4524 20.3163C36.5284 19.0776 36.0664 17.2605 36.0664 14.8649C36.0664 13.6159 36.1537 12.4693 36.3282 11.4251C36.5028 10.3808 36.78 9.47482 37.1598 8.707C37.5397 7.93919 38.0274 7.3403 38.6228 6.91032C39.2183 6.48034 39.9267 6.26536 40.748 6.26536C41.3845 6.26536 41.9697 6.39332 42.5036 6.64926C43.0375 6.9052 43.4892 7.31982 43.8588 7.89312C44.2284 8.46642 44.5159 9.20864 44.7212 10.1198C44.9265 11.0309 45.0292 12.1417 45.0292 13.4521V14.7727H38.5612C38.5612 16.5336 38.8025 17.8645 39.285 18.7654C39.7676 19.6663 40.4913 20.1167 41.4564 20.1167C42.134 20.1167 42.7346 19.999 43.2582 19.7635C43.7818 19.528 44.1976 19.2977 44.5056 19.0725L45.06 20.9152ZM22.2681 6.48034V21.9595H19.8965V15.0184H16.3238V21.9595H13.9214V6.48034H16.3238V13.0528H19.8965V6.48034H22.2681ZM49.8956 14.2506V21.9595H47.4932V6.48034H49.8956V13.6364L53.6223 6.48034H56.0555L52.2055 13.7592L56.6099 21.9595H53.9919L49.8956 14.2506ZM62.2463 22.1744C60.5831 22.1744 59.2792 21.5141 58.3347 20.1935C57.3902 18.8728 56.9179 16.8817 56.9179 14.2199C56.9179 13.0119 57.036 11.9165 57.2721 10.9337C57.5082 9.95085 57.8573 9.11651 58.3193 8.43059C58.7813 7.74467 59.3562 7.21233 60.0441 6.83354C60.732 6.45475 61.5276 6.26536 62.4311 6.26536C63.1292 6.26536 63.6939 6.34214 64.1251 6.4957C64.5563 6.64926 64.9464 6.83866 65.2955 7.06388L64.9567 9.33661C64.6281 9.04996 64.2431 8.79914 63.8017 8.58415C63.3602 8.36916 62.8931 8.26167 62.4003 8.26167C61.5379 8.26167 60.8295 8.74283 60.2751 9.70516C59.7207 10.6675 59.4435 12.1314 59.4435 14.0971C59.4435 16.0422 59.6745 17.542 60.1365 18.5964C60.5985 19.6509 61.3223 20.1781 62.3079 20.1781C62.9033 20.1781 63.4167 20.0809 63.8479 19.8864C64.2791 19.6919 64.6384 19.4717 64.9259 19.226L65.4803 21.0074C65.0696 21.3554 64.6076 21.637 64.0943 21.852C63.5809 22.067 62.9649 22.1744 62.2463 22.1744ZM31.0153 8.41523H28.3357V8.69165C28.3357 9.51065 28.3203 10.4064 28.2895 11.379C28.2587 12.3516 28.192 13.3395 28.0893 14.3428C27.9866 15.346 27.8429 16.3339 27.6581 17.3065C27.4733 18.2791 27.2166 19.1749 26.8881 19.9939H31.0153V8.41523ZM40.748 8.23096C40.0088 8.23096 39.4852 8.64557 39.1772 9.47482C38.8692 10.3041 38.6742 11.4148 38.592 12.8071H42.5652C42.5652 12.1519 42.5344 11.5428 42.4728 10.9797C42.4112 10.4167 42.3137 9.93039 42.1802 9.52088C42.0467 9.11138 41.8619 8.79402 41.6258 8.5688C41.3897 8.34357 41.0971 8.23096 40.748 8.23096ZM74.4122 10.3808V21.9595H72.8722V0H74.4122V10.258L80.8494 0H82.3278L75.983 10.1351L82.8821 21.9595H81.1574L74.4122 10.3808ZM87.9641 21.0995C88.6828 21.0995 89.2936 20.8026 89.7967 20.2088C90.2998 19.6151 90.695 18.8984 90.9825 18.059V13.7899H89.3193C88.0257 13.7899 87.0709 14.097 86.4549 14.7113C85.8389 15.3256 85.5309 16.3083 85.5309 17.6597C85.5309 18.7654 85.7517 19.6151 86.1931 20.2088C86.6346 20.8026 87.2249 21.0995 87.9641 21.0995ZM91.4137 21.9595C91.3521 21.7547 91.2854 21.4937 91.2135 21.1763C91.1416 20.8589 91.0852 20.4238 91.0441 19.871C90.6745 20.6081 90.2125 21.1916 89.6581 21.6216C89.1037 22.0516 88.4364 22.2666 87.6561 22.2666C86.6089 22.2666 85.7568 21.8724 85.0997 21.0842C84.4427 20.2959 84.1141 19.1953 84.1141 17.7826C84.1141 16.1241 84.5556 14.87 85.4385 14.0203C86.3215 13.1706 87.6048 12.7457 89.2885 12.7457H90.9825V10.8108C90.9825 9.62325 90.7669 8.76331 90.3357 8.23096C89.9045 7.69861 89.2577 7.43243 88.3953 7.43243C87.7382 7.43243 87.1223 7.58087 86.5473 7.87776C85.9724 8.17465 85.5001 8.58927 85.1305 9.12162L84.7301 7.73956C85.0381 7.33005 85.5053 6.96663 86.1315 6.64926C86.7578 6.3319 87.5124 6.17322 88.3953 6.17322C89.6889 6.17322 90.6796 6.53665 91.3675 7.26351C92.0554 7.99038 92.3993 9.12161 92.3993 10.6572V19.1032C92.3993 19.6355 92.4301 20.173 92.4917 20.7156C92.5533 21.2582 92.6354 21.6728 92.7381 21.9595H91.4137ZM100.068 21.0074C100.561 21.0074 100.998 20.9255 101.377 20.7617C101.757 20.5979 102.081 20.4034 102.348 20.1781C102.656 19.9529 102.923 19.6765 103.148 19.3489L103.61 20.5467C103.385 20.8743 103.097 21.1609 102.748 21.4066C102.461 21.6319 102.086 21.8315 101.624 22.0055C101.162 22.1796 100.633 22.2666 100.038 22.2666C98.4771 22.2666 97.2708 21.5653 96.4186 20.1628C95.5665 18.7602 95.1405 16.7895 95.1405 14.2506C95.1405 11.6912 95.5614 9.70517 96.4033 8.29238C97.2451 6.8796 98.4668 6.17322 100.068 6.17322C100.869 6.17322 101.547 6.31142 102.101 6.58784C102.656 6.86425 103.107 7.2072 103.456 7.61671L103.056 9.15233C102.707 8.68141 102.286 8.27191 101.793 7.92383C101.3 7.57576 100.726 7.40172 100.068 7.40172C98.8775 7.40172 97.9997 7.99549 97.4351 9.18305C96.8704 10.3706 96.5881 12.0598 96.5881 14.2506C96.5881 16.38 96.8652 18.0385 97.4196 19.226C97.9741 20.4136 98.857 21.0074 100.068 21.0074ZM110.294 21.0074C110.787 21.0074 111.223 20.9255 111.603 20.7617C111.983 20.5979 112.306 20.4034 112.573 20.1781C112.881 19.9529 113.148 19.6765 113.374 19.3489L113.836 20.5467C113.61 20.8743 113.323 21.1609 112.974 21.4066C112.686 21.6319 112.311 21.8315 111.849 22.0055C111.387 22.1796 110.859 22.2666 110.263 22.2666C108.703 22.2666 107.496 21.5653 106.644 20.1628C105.792 18.7602 105.366 16.7895 105.366 14.2506C105.366 11.6912 105.787 9.70517 106.629 8.29238C107.471 6.8796 108.692 6.17322 110.294 6.17322C111.095 6.17322 111.772 6.31142 112.327 6.58784C112.881 6.86425 113.333 7.2072 113.682 7.61671L113.282 9.15233C112.932 8.68141 112.512 8.27191 112.019 7.92383C111.526 7.57576 110.951 7.40172 110.294 7.40172C109.103 7.40172 108.225 7.99549 107.661 9.18305C107.096 10.3706 106.814 12.0598 106.814 14.2506C106.814 16.38 107.091 18.0385 107.645 19.226C108.2 20.4136 109.082 21.0074 110.294 21.0074ZM119.226 21.0995C119.945 21.0995 120.555 20.8026 121.058 20.2088C121.562 19.6151 121.957 18.8984 122.244 18.059V13.7899H120.581C119.287 13.7899 118.333 14.097 117.717 14.7113C117.101 15.3256 116.793 16.3083 116.793 17.6597C116.793 18.7654 117.013 19.6151 117.455 20.2088C117.896 20.8026 118.487 21.0995 119.226 21.0995ZM122.675 21.9595C122.614 21.7547 122.547 21.4937 122.475 21.1763C122.403 20.8589 122.347 20.4238 122.306 19.871C121.936 20.6081 121.474 21.1916 120.92 21.6216C120.366 22.0516 119.698 22.2666 118.918 22.2666C117.871 22.2666 117.019 21.8724 116.362 21.0842C115.704 20.2959 115.376 19.1953 115.376 17.7826C115.376 16.1241 115.817 14.87 116.7 14.0203C117.583 13.1706 118.867 12.7457 120.55 12.7457H122.244V10.8108C122.244 9.62325 122.029 8.76331 121.597 8.23096C121.166 7.69861 120.52 7.43243 119.657 7.43243C119 7.43243 118.384 7.58087 117.809 7.87776C117.234 8.17465 116.762 8.58927 116.392 9.12162L115.992 7.73956C116.3 7.33005 116.767 6.96663 117.393 6.64926C118.02 6.3319 118.774 6.17322 119.657 6.17322C120.951 6.17322 121.941 6.53665 122.629 7.26351C123.317 7.99038 123.661 9.12161 123.661 10.6572V19.1032C123.661 19.6355 123.692 20.173 123.753 20.7156C123.815 21.2582 123.897 21.6728 124 21.9595H122.675Z" fill="black"/>
        <path fill-rule="evenodd" clip-rule="evenodd" d="M6.49876 13.5442L2.74118 21.9595H0L4.12717 12.9607C3.16211 12.4693 2.38185 11.7475 1.78639 10.7955C1.19092 9.84336 0.893194 8.54833 0.893194 6.91032C0.893194 5.76371 1.06259 4.75533 1.40139 3.88513C1.74019 3.01494 2.20218 2.29321 2.78738 1.7199C3.37258 1.1466 4.0553 0.716627 4.83557 0.429975C5.61583 0.143324 6.43715 0 7.29955 0H10.8415V21.9595H8.46995V13.5442H6.49876ZM8.46995 1.99631H7.20715C6.73489 1.99631 6.2729 2.08333 5.82116 2.25737C5.36943 2.43141 4.96904 2.70782 4.61997 3.08661C4.2709 3.4654 3.98858 3.96703 3.77298 4.59152C3.55738 5.21601 3.44958 5.98894 3.44958 6.91032C3.44958 7.79075 3.54711 8.52784 3.74218 9.12162C3.93724 9.7154 4.20417 10.1966 4.54297 10.5651C4.88177 10.9337 5.28216 11.1947 5.74416 11.3483C6.20616 11.5018 6.69382 11.5786 7.20715 11.5786H8.46995V1.99631Z" fill="#FF0000"/>
    </symbol>

    <symbol id="w1" viewBox="0 0 48 28">
        <path d="M38.8481 9.47422C37.4126 8.03079 34.9779 8.11766 33.4392 9.65967L27.8504 15.263V3.96778C27.8504 1.78592 26.1851 0 24.1551 0C23.3111 0.00900478 22.4985 0.322072 21.8654 0.8821C21.6378 1.03389 21.4259 1.20793 21.2325 1.40167L7.39393 15.2914V3.96778C7.39393 1.78592 5.72864 0 3.69698 0C1.66531 0 1.67809e-05 1.78592 1.67809e-05 3.96778V23.8117C-0.00224955 24.6057 0.225088 25.3833 0.654478 26.0504C0.797073 26.3103 0.974092 26.5497 1.18071 26.7621C1.62462 27.1956 2.17507 27.5034 2.77607 27.6542H2.78939C3.46164 27.8194 4.16514 27.8066 4.831 27.6172C5.49686 27.4277 6.10226 27.068 6.58793 26.5733L20.4615 12.6618V23.8084C20.4625 24.3775 20.5798 24.9404 20.8062 25.4623C20.9801 25.9485 21.2574 26.3909 21.6189 26.7587C23.0544 28.2021 25.4907 28.1169 27.0278 26.5749L38.6665 14.9021C40.2053 13.3652 40.2869 10.921 38.8481 9.47422Z" fill="#000806"/>
        <path d="M47.9938 3.9709C48.0231 3.4701 47.9473 2.96871 47.7715 2.49909C47.5957 2.02946 47.3236 1.60204 46.973 1.24441C46.601 0.878424 46.154 0.598235 45.663 0.42338C45.1721 0.248525 44.649 0.183213 44.1303 0.231998C43.6961 0.254533 43.27 0.359406 42.8747 0.541067C42.3857 0.749582 41.9417 1.05144 41.5674 1.42985L34.0969 8.92269C32.5548 10.4697 32.4716 12.9105 33.9054 14.3506C35.3392 15.7907 37.7772 15.7088 39.3159 14.1668L40.6082 12.8637V24.0303C40.6082 26.2139 42.2735 27.9998 44.3035 27.9998C46.3335 27.9998 47.9938 26.2139 47.9938 24.0303V3.9709Z" fill="#9A4A4B"/>
    </symbol>

    <symbol id="beeline" viewBox="0 0 28 28">
        <path d="M0 14.0002C0 21.7328 6.26712 28 14.001 28C21.7314 28 28 21.7328 28 14.0002C28 6.26717 21.7314 -8.66778e-08 14.001 -8.66778e-08C6.26712 -8.66778e-08 0 6.26717 0 14.0002Z" fill="url(#paint0_linear)"/>
        <mask id="mask0" mask-type="alpha" maskUnits="userSpaceOnUse" x="0" y="0" width="28" height="28">
            <path d="M0 14.0002C0 21.7328 6.26712 28 14.001 28C21.7314 28 28 21.7328 28 14.0002C28 6.26717 21.7314 -8.66778e-08 14.001 -8.66778e-08C6.26712 -8.66778e-08 0 6.26717 0 14.0002Z" fill="url(#paint1_linear)"/>
        </mask>
        <g mask="url(#mask0)">
            <path d="M27.998 11.0147H0V17.0073H27.998V11.0147ZM27.998 22.998H0V27.9966H27.998V22.998ZM27.998 5.02358H0V0.00206191H27.998V5.02358Z" fill="black"/>
            <path d="M27.998 11.0147H0V17.0073H27.998V11.0147ZM27.998 5.02355H0V0.00203827H27.998V5.02355Z" fill="url(#paint2_radial)"/>
            <path d="M27.998 11.0147H0V17.0073H27.998V11.0147ZM27.998 5.02355H0V0.00203827H27.998V5.02355Z" fill="url(#paint3_radial)"/>
        </g>
        <defs>
            <linearGradient id="paint0_linear" x1="0.000498221" y1="14.0097" x2="27.998" y2="14.0097" gradientUnits="userSpaceOnUse">
                <stop stop-color="#FAA61A"/>
                <stop offset="1" stop-color="#FFE100"/>
            </linearGradient>
            <linearGradient id="paint1_linear" x1="0.000498221" y1="14.0097" x2="27.998" y2="14.0097" gradientUnits="userSpaceOnUse">
                <stop stop-color="#FAA61A"/>
                <stop offset="1" stop-color="#FFE100"/>
            </linearGradient>
            <radialGradient id="paint2_radial" cx="0" cy="0" r="1" gradientUnits="userSpaceOnUse" gradientTransform="translate(17.2863 9.61706) scale(8.48868 8.48944)">
                <stop stop-color="#363738"/>
                <stop offset="1"/>
            </radialGradient>
            <radialGradient id="paint3_radial" cx="0" cy="0" r="1" gradientUnits="userSpaceOnUse" gradientTransform="translate(17.2863 9.61706) scale(8.48868 8.48944)">
                <stop stop-color="#363738"/>
                <stop offset="1"/>
            </radialGradient>
        </defs>
    </symbol>

    <symbol id="cash" viewBox="0 0 50 28">
        <path fill-rule="evenodd" clip-rule="evenodd" d="M8 2H42C42 5.31348 44.6865 8 48 8V20C44.6865 20 42 22.6865 42 26H8C8 22.6865 5.31348 20 2 20V8C5.31348 8 8 5.31348 8 2ZM0 0H2H48H50V2V26V28H48H2H0V26V2V0ZM29 14C29 16.209 27.209 18 25 18C22.791 18 21 16.209 21 14C21 11.791 22.791 10 25 10C27.209 10 29 11.791 29 14ZM31 14C31 17.3135 28.3135 20 25 20C21.6865 20 19 17.3135 19 14C19 10.6865 21.6865 8 25 8C28.3135 8 31 10.6865 31 14ZM16 14C16 15.1045 15.1045 16 14 16C12.8955 16 12 15.1045 12 14C12 12.8955 12.8955 12 14 12C15.1045 12 16 12.8955 16 14ZM36 16C37.1045 16 38 15.1045 38 14C38 12.8955 37.1045 12 36 12C34.8955 12 34 12.8955 34 14C34 15.1045 34.8955 16 36 16Z" fill="#1B1B1C"/>
    </symbol>

    <symbol viewBox="0 0 32 25" id="success">
        <g fill="none">
            <path d="M1.52246 13.7192L10.585 22.688L30.6475 1.81299" stroke="currentColor" stroke-width="3" stroke-linejoin="round" fill="none"/>
        </g>
    </symbol>


    <svg viewBox="0 0 23 24" id="fail">
        <path d="M2.43501 23.7274L22.4975 2.85239L20.3345 0.773584L0.272017 21.6486L2.43501 23.7274Z" fill="currentColor"/>
        <path d="M20.3345 23.7274L0.272017 2.85239L2.43501 0.773584L22.4975 21.6486L20.3345 23.7274Z" fill="currentColor"/>
    </svg>
</svg>
