<svg xmlns="http://www.w3.org/2000/svg" width="50" height="50" viewBox="0 0 60 60" id="icon"><g><path d="M30 8.95C18.377 8.95 8.95 18.374 8.95 30c0 11.625 9.426 21.05 21.05 21.05 11.626 0 21.05-9.425 21.05-21.05 0-11.626-9.424-21.05-21.05-21.05zm0 37.746c-9.202 0-16.694-7.49-16.694-16.696 0-9.203 7.492-16.695 16.695-16.695 9.21 0 16.697 7.492 16.697 16.695 0 9.207-7.49 16.696-16.695 16.696z"/><path d="M35.756 20.224l-5.25 6.253c-.168-.024-.338-.052-.514-.052a3.62 3.62 0 1 0 3.618 3.62 3.6 3.6 0 0 0-.55-1.9l3.893-7.103c.16-.3.1-.68-.173-.91a.727.727 0 0 0-1.024.092zm-5.698-1.142a.7.7 0 0 0 .7-.7v-2.95a.702.702 0 0 0-1.403 0v2.95a.7.7 0 0 0 .703.7zm14.54 10.186h-2.95a.703.703 0 0 0 0 1.405h2.95a.703.703 0 0 0 0-1.405zm-25.428.702a.704.704 0 0 0-.703-.702h-2.952a.703.703 0 0 0 0 1.405h2.952a.702.702 0 0 0 .702-.702zm5.644-10.358a.706.706 0 0 0 .922.366.705.705 0 0 0 .365-.925l-1.17-2.707a.7.7 0 1 0-1.286.554l1.17 2.712zM43.85 34.63l-2.75-1.08a.706.706 0 0 0-.91.397c-.14.364.038.77.398.91l2.748 1.078a.7.7 0 1 0 .513-1.306zm-27.587-9.317l2.748 1.08a.703.703 0 0 0 .515-1.308l-2.747-1.08a.702.702 0 1 0-.514 1.308zm18-5.383c.357.15.767-.02.92-.38l1.14-2.72a.703.703 0 1 0-1.298-.542l-1.14 2.722c-.15.357.02.768.377.92zm6.725 6.158l2.714-1.164a.698.698 0 0 0 .37-.92.707.707 0 0 0-.923-.37l-2.715 1.163a.703.703 0 0 0 .552 1.29zm-21.865 7.826l-2.713 1.162a.702.702 0 0 0 .552 1.29l2.713-1.16a.702.702 0 0 0-.552-1.292zm21.71-14.72a.7.7 0 0 0-.99 0l-2.087 2.086a.702.702 0 0 0 .992.994l2.087-2.088a.7.7 0 0 0 0-.992zm-20.618 0a.7.7 0 1 0-.992.992l2.087 2.088a.702.702 0 0 0 .992-.994l-2.087-2.086zm14.278 17.31h-8.856c-1.163 0-2.107.94-2.107 2.104v3.048c0 1.164.944 2.107 2.107 2.107h8.856a2.104 2.104 0 0 0 2.102-2.107v-3.048a2.1 2.1 0 0 0-2.102-2.103z"/></g></svg>