<svg xmlns="http://www.w3.org/2000/svg" width="50" height="50" viewBox="0 0 60 60" id="icon"><path d="M50.48 38.888H43.4c-.67-2.234-1.527-4.41-2.595-5.794-1.264-2.08-3.158-3.08-4.842-3.553.315-.876.657-1.646 1.016-2.167 1.623-2.335 4.466-2.23 4.466-2.23h3.044s3.567-.392 5.19 2.346c1.928 2.436 2.93 9.522 2.93 9.522 0 1.926-2.13 1.878-2.13 1.878zm-7.443-15.72a6.305 6.305 0 0 1-3.03-.773c.385-1.082.61-2.24.61-3.456 0-2.41-.838-4.625-2.22-6.383a6.292 6.292 0 0 1 4.64-2.037 6.324 6.324 0 1 1 0 12.648zm-22.49 9.755c-.933 1.344-1.756 3.62-2.42 5.965H9.284c-2.186.05-1.88-1.877-1.88-1.877s1.22-7.304 2.84-9.637c1.628-2.335 4.47-2.23 4.47-2.23h3.042s3.566-.392 5.186 2.346c.478.6.898 1.48 1.26 2.475-1.26.54-2.602 1.442-3.656 2.96zm-.244-11.188a6.262 6.262 0 0 1-4.002 1.432 6.327 6.327 0 0 1-6.32-6.327 6.326 6.326 0 0 1 11.588-3.503 10.29 10.29 0 0 0-1.657 5.6c0 .97.144 1.912.394 2.798zm20.43 28.227H20.387c-3.075.068-2.647-2.642-2.647-2.642s1.717-10.282 4.005-13.567c2.28-3.282 6.28-3.14 6.28-3.14h4.285s5.013-.55 7.3 3.303c2.712 3.43 4.123 13.404 4.123 13.404 0 2.71-3 2.642-3 2.642zm-10.47-22.126c-4.916 0-8.902-3.983-8.902-8.897a8.902 8.902 0 0 1 8.904-8.904c4.916 0 8.897 3.986 8.897 8.902a8.897 8.897 0 0 1-8.896 8.896z"/></svg>