<svg xmlns="http://www.w3.org/2000/svg" width="50" height="50" viewBox="0 0 60 60" id="icon"><path d="M53.774 28.408l-.543-1.59c-.3-.88-1.255-1.59-2.135-1.59H49.12c-1.482-4.157-3.294-9.175-3.82-10.35-.82-1.828-3.437-2.654-4.876-3.055 0 0-2.405-.914-10.424-.914-8.02 0-10.425.912-10.425.912-1.684.563-4.027 1.36-4.96 3.135-.436.837-2.276 5.997-3.773 10.27H8.907c-.877 0-1.834.712-2.136 1.59l-.544 1.59C5.923 29.29 6.392 30 7.27 30h1.91l-.396 1.148c-.153.26-.263 1.45-.263 1.77v14.49c0 .93.758 1.684 1.686 1.684h6.177c.93 0 1.685-.755 1.685-1.685v-3.09H41.93v3.09c0 .93.755 1.685 1.686 1.685h6.176c.93 0 1.685-.755 1.685-1.685V32.915c0-.32-.11-1.51-.264-1.768l-.405-1.15h1.918c.88 0 1.35-.71 1.048-1.59zm-35.742 8.877h-2.554c-2.286 0-4.57-.308-4.57-1.76V33.77c0-1.698.985-1.76 2.047-1.76 1.04 0 3.094.88 4.447 1.485 1.474.66 3.127 1.21 3.127 2.31-.003 1.014-.574 1.482-2.5 1.482zm-3.558-11.417c1.256-5.217 2.62-8.163 2.924-8.985.24-.596.475-2.44 12.603-2.44 12.13 0 12.416 2.102 12.445 2.13.374 1.116 1.857 4.484 3.043 9.292 0 0-5.122 1.745-15.49 1.745-10.366 0-15.523-1.742-15.523-1.742zM39.47 35.8c0-1.1 1.652-1.65 3.127-2.308 1.353-.603 3.408-1.484 4.445-1.484 1.06 0 2.047.062 2.047 1.76v1.757h.002c0 1.454-2.284 1.76-4.572 1.76h-2.554c-1.922 0-2.496-.468-2.496-1.485z"/></svg>